<svg width="64" height="64" viewBox="0 0 64 64" fill="none" xmlns="http://www.w3.org/2000/svg">
<path d="M12.9437 53.9109H6.2061L6.20605 45.6459C8.47454 43.3774 20.2294 31.5194 22.8072 28.9416L28.8909 35.0253C35.8672 28.1007 48.3792 15.4339 52.813 11H58.9998V13.2685L28.8909 43.3644L22.7879 37.2938L13.0115 47.0895L12.9437 53.9109Z" fill="url(#paint0_linear_41_90)"/>
<path d="M12.9654 34.819L6.05683 41.8307C5.98808 38.6342 5.97434 27.2506 6.05683 20.4864C6.13932 13.7222 12.5529 11.3437 15.7494 11H49.1011L42.2957 17.8054H17.7086C14.079 17.8054 13.0341 20.8988 12.9654 22.4455V34.819Z" fill="url(#paint1_linear_41_90)"/>
<path d="M52.2977 23.786L59 17.0836L59 44.1544C59 50.9599 54.1537 53.8949 49.4105 53.8949H22.2919L29.0973 47.0895H47.4514C51.0809 47.0895 52.1258 43.9961 52.1946 42.4494L52.2977 23.786Z" fill="url(#paint2_linear_41_90)"/>
<path d="M8.68066 39.1498L13.0114 34.9221L13.0114 24.4046C13.0114 17.8054 17.239 17.8054 17.239 17.8054C12.4958 17.8054 8.68066 19.7646 8.68066 24.4046L8.68066 39.1498Z" fill="#47178F"/>
<path d="M24.7664 51.5233L29.0972 47.0894L45.6983 47.0894C51.5757 47.0894 52.1943 42.0369 52.1943 42.0369C52.1943 46.5738 52.1943 51.5233 45.6983 51.5233L24.7664 51.5233Z" fill="#47178F"/>
<defs>
<linearGradient id="paint0_linear_41_90" x1="62.9181" y1="7.90661" x2="6.20605" y2="53.8949" gradientUnits="userSpaceOnUse">
<stop stop-color="#9340DB"/>
<stop offset="0.957245" stop-color="#411781"/>
</linearGradient>
<linearGradient id="paint1_linear_41_90" x1="44.2548" y1="4.91635" x2="11.1463" y2="45.9696" gradientUnits="userSpaceOnUse">
<stop stop-color="#9340DB"/>
<stop offset="0.957245" stop-color="#411781"/>
</linearGradient>
<linearGradient id="paint2_linear_41_90" x1="59.0047" y1="17.102" x2="13.3533" y2="47.0916" gradientUnits="userSpaceOnUse">
<stop stop-color="#9340DB"/>
<stop offset="0.957245" stop-color="#411781"/>
</linearGradient>
</defs>
</svg>
