<svg width="293" height="238" viewBox="0 0 293 238" fill="none" xmlns="http://www.w3.org/2000/svg">
<path d="M38.3884 237.224H1.14062L1.14038 191.533C13.6812 178.992 78.6656 113.438 92.9166 99.1867L126.549 132.819C165.116 94.538 234.286 24.5117 258.798 0L293 7.33902e-06V12.541L126.549 178.92L92.8097 145.36L38.7631 199.514L38.3884 237.224Z" fill="url(#paint0_linear_32_175)"/>
<path d="M38.5068 131.679L0.314155 170.442C-0.0658709 152.77 -0.141854 89.8381 0.314176 52.4435C0.770207 15.049 36.2266 1.90013 53.8978 0H238.276L200.654 37.6225H64.7285C44.6632 37.6225 38.8868 54.7237 38.5068 63.2743V131.679Z" fill="url(#paint1_linear_32_175)"/>
<path d="M255.947 70.6847L293 33.6322L293 183.288C293 220.91 266.208 237.136 239.986 237.136H90.0661L127.689 199.513H229.155C249.221 199.513 254.997 182.412 255.377 173.862L255.947 70.6847Z" fill="url(#paint2_linear_32_175)"/>
<path d="M14.821 155.62L38.7627 132.249L38.7627 74.1049C38.7627 37.6224 62.1342 37.6224 62.1342 37.6224C35.9125 37.6224 14.821 48.4532 14.821 74.1049L14.821 155.62Z" fill="#47178F"/>
<path d="M103.747 224.025L127.689 199.513L219.465 199.513C251.957 199.513 255.377 171.582 255.377 171.582C255.377 196.663 255.377 224.025 219.465 224.025L103.747 224.025Z" fill="#47178F"/>
<defs>
<linearGradient id="paint0_linear_32_175" x1="314.662" y1="-17.1012" x2="1.14035" y2="237.136" gradientUnits="userSpaceOnUse">
<stop stop-color="#9340DB"/>
<stop offset="0.957245" stop-color="#411781"/>
</linearGradient>
<linearGradient id="paint1_linear_32_175" x1="211.484" y1="-33.6323" x2="28.4501" y2="193.322" gradientUnits="userSpaceOnUse">
<stop stop-color="#9340DB"/>
<stop offset="0.957245" stop-color="#411781"/>
</linearGradient>
<linearGradient id="paint2_linear_32_175" x1="293.026" y1="33.7338" x2="40.6509" y2="199.525" gradientUnits="userSpaceOnUse">
<stop stop-color="#9340DB"/>
<stop offset="0.957245" stop-color="#411781"/>
</linearGradient>
</defs>
</svg>
